<mxfile host="65bd71144e">
    <diagram id="VhE8AFKq5oBepBzJ3_Oc" name="ページ1">
        <mxGraphModel dx="916" dy="712" grid="1" gridSize="10" guides="1" tooltips="1" connect="1" arrows="1" fold="1" page="1" pageScale="1" pageWidth="827" pageHeight="1169" math="0" shadow="0">
            <root>
                <mxCell id="0"/>
                <mxCell id="1" parent="0"/>
                <mxCell id="7" value="" style="rounded=0;whiteSpace=wrap;html=1;fillColor=#f5f5f5;fontColor=#333333;strokeColor=#666666;" parent="1" vertex="1">
                    <mxGeometry x="120" y="160" width="710" height="360" as="geometry"/>
                </mxCell>
                <mxCell id="20" value="users" style="text;html=1;align=center;verticalAlign=middle;resizable=0;points=[];autosize=1;fontSize=16;fontColor=#000000;" parent="7" vertex="1">
                    <mxGeometry x="586.4473684210526" y="230" width="60" height="30" as="geometry"/>
                </mxCell>
                <mxCell id="25" value="GitHub" style="text;html=1;align=center;verticalAlign=middle;resizable=0;points=[];autosize=1;fontSize=16;fontColor=#000000;" parent="7" vertex="1">
                    <mxGeometry x="211.20973684210526" y="230" width="70" height="30" as="geometry"/>
                </mxCell>
                <mxCell id="26" value="PC" style="text;html=1;align=center;verticalAlign=middle;resizable=0;points=[];autosize=1;fontSize=16;fontColor=#000000;" parent="7" vertex="1">
                    <mxGeometry x="60.723684210526315" y="230" width="50" height="30" as="geometry"/>
                </mxCell>
                <mxCell id="28" value="" style="shape=image;verticalLabelPosition=bottom;labelBackgroundColor=default;verticalAlign=top;aspect=fixed;imageAspect=0;image=data:image/png,iVBORw0KGgoAAAANSUhEUgAAAGAAAABgCAYAAADimHc4AAAACXBIWXMAAAsTAAALEwEAmpwYAAAEdUlEQVR4nO2a62/TVRjH928co0YSIyZGhUQNJMQgMcYYX/nCNwajL9QXIjGGHEAQ5KKIyATxFpGBAWSAQMbFBBWVMFABL2xs60rHbl2pW9dtrCttt/Zrnl8yI2t7fr/eOBS/n+R5tzTL9/tcznl+p6aGEEIIIYQQQgghhJA8KN0ERlNeDSqeOBS/yZiANEDbrVAaoGnA/3pG1HAGNNEA21moWAH2hVBsQfbFUBaCM0DTAOtZqFgB9oVQbEH2xVAWgjNA0wDrWahYAfaFUGxB9sVQFoIzQNMA61moWAH2hVBsQfbFUBaCM0DTAOtZqFgB9oVQbEH2xVAWgjNA0wDrWahYAfaFUGxB9sVQFoIzQNMA61moWAH2hVBsQblF+OzkAG4E4+mMqwn3rLiIl3d148vGCE53xNAZSWI4PnFddAwkcCowin3no3j/eBjz6zpx/+rW6p0BN4MBM99pw9dnoxhLpov+/e1nIjSgGAMW1vdiNFG88JPs/HWQBhRqwOKDQWQyKAtbTw3QgEIMmLvRj9REmdQHsPnE3zSgEANO+kfhhXQG6I2mcCEYhy98DUNjEzn/bv3xcHUa8Ny2Tmz5qd8Yn/zcbxTpbOeY629s+k+GPrim1RHWRCQ2Dn0giOkrW7L+51nv+fDW4RDOdY3928JWHQ1VpwFe4q43m41i1f6Qu/zzxRv7e42/J1k+e73P02/Nq/Wj4cKwM09ogPZmgFSDiY3fF2aoxJ1Lm2mA8ijW7t8GjQa8sKOrbNXLFqSzRdl7Pmo0YHlDHw1QFZwBn7rcvoNDKeN6gRVQogGv1ffADdn5PLH5Eg1QFaiAB1a3OvcCNybSGdSfi+Khd9tYAeU0QGL/70PwSnI8gx2/RPDIOm9HUw5h7S7Mw+vaMBLPfavNh6wupCJke0oDSqwACTluemlFU5G19Ybvwpi27CIroBQDJF7Z3e20mGII9Ccw70M/W1BtCQZIPLUlgMsDiaJMkG8Jz3zewRmgSjyvyyph7bdXkCiiGmLJNB79oJ1DWJXh4iSbTvneK0fQQvizN47bFvMUhHLFnA3taPhruKAvZs9vz94hcRekSzPiyY8uOS8kvHDgjyEaoCoQ0lpWHA65fsSRHRIrQFcu5OzvdlGbOgfYgnT5DJAbsAmZF3csuf7DDA3Q2UI+vsmPu5e732KnhnxLNjEYG2cLUh6ElPN+eCSFRd8EcfuUjDXF6/vM35Ll1QRngPZmwCTy/vPtIyHMWGtesD39cSDvk5RJZFFHA3RhBkwiJxx5+1N3JoJlDX14dU8PFuzpwZpjV3DCd9XTxezFr3gPQLEGlEpoOJVzO8ohrG+MAS/t7M5pNg3QlTfgizwPc2mArmwLkouXXM5M7Y4VoLNFeazW72Rtc1/cdb2QT/hjzSPOC2u3eUMDtFmge1e24Nmtl7H0UB+2NUbwo+8qWkLX0DWYdO4KcrlqDyfQGIih7nTEedJy3yrvb4ZuCQNUFQcN0DTAehYqVoB9IdSt2oIIIYQQQgghhBBCSE218g/MrZ1DrR+A/QAAAABJRU5ErkJggg==;" parent="7" vertex="1">
                    <mxGeometry x="192.16447368421052" y="80" width="56.05263157894737" height="56.05263157894737" as="geometry"/>
                </mxCell>
                <mxCell id="30" value="" style="shape=image;verticalLabelPosition=bottom;labelBackgroundColor=default;verticalAlign=top;aspect=fixed;imageAspect=0;image=data:image/png,iVBORw0KGgoAAAANSUhEUgAAAGAAAABgCAYAAADimHc4AAAAAXNSR0IArs4c6QAAAERlWElmTU0AKgAAAAgAAYdpAAQAAAABAAAAGgAAAAAAA6ABAAMAAAABAAEAAKACAAQAAAABAAAAYKADAAQAAAABAAAAYAAAAACpM19OAAAcnklEQVR4Ae1dCZhVxZWuqvteQwM6IIK79AIuQXAJxg16MbgHsOluTJQoaqIxjoOJiVGjQ38GNcQljsY40SwQFDM23W3gm6gR0gubGlyAYDTQr7sBHUXAsEgv792q+c/tvvfVvW/pd9+7fJN80/f7oNZz6tQ5VadOnapXzdjAN8CBAQ4McGCAAwMcGODAAAf+P3KAH+pOV2/enGfuGlzFJL+cC1agFDtBMXWAcf4/gqktjLMVoputqL2oeO+hpkXHX7Gq9SSh+MVcyYsUY+OY4keDpiGos40xtZUx8ZIIhxbXnn9Cpw4XdPyQCqCieeuFXPFfcs4L+yE8BkJeVZw/WTel4I9gBHgS/HfZH7YMGjLMqGZK3goGn9tfCxgs2wzBr60tKWzur2625YdMADOb267iTD0HwkL+iFPvg6j5S0uKlgQliLLGxtCRouBGyWQNZxjpPj4IoUcwceXSsoKXfYBlXPWQCKC6peMLpoq9ic4OzZgST0V0/E3B5XeWlo5d6ynylaxsabtESvmY4PwLvgDdlXcraZ5RXz5uhzs795TIHYUHg1JcKvlbF/MV2MnlYkj7EmaYp0H3TwTUVdD/jzGuOjwYrCTn7EtAtXpmU+TZ6sbNw5LVSZc3ffX7h1U2Rn7JlHolGfNBkgT8GrT/XSX5eYKbowcJ4wgm+LmAWejBPVIYxrOevECSgc+AqubIxVDgr7qpUzfWlRb/2p3XlwKXq5rbJivOvo+OfwVqJ5Emzlu5Mq/NdDbMbI6UQP0tYowX9LXiBDAAuphki2AQPAqatjgFnkhVU+Qe0PSAni0FO6NhStEGPS/XeOAzAB28XScKevfFlMynilhwl5YVraorLZoulZoI9r+iw1txpYol4y1g7L0QUqKANIDK5ra5qLAygfk0CxlfYsTyxtaXF38rHfMJ3WmlhT8GwDoNNROmu296WbbxtJ3xi3Ta+o+G5H3etQdwg2zYbEYN9PaVsFR+msBEICWBxoYOuX75pGMP2m1QOKexbfB+Lp+GQOfo+RSHYD8IKfaN2vLi1d6ydGkIfDoY9Hutzu4JJYWjazgn9RXIF+gMyDvYPQVUOczHmNuYzZStKyl8KWpEJ0qoCm8vYZHMyjvQuWpG89YT7LLqtduP2CfUnxKYj1GPUfzz2LD8s/wyn3AfOXTPy4DfZbeDcOSmlo7TtXTO0UAFgE3NeS6KOPM14nTYZZNP2d9QXjQHO4JZYIJ7k8b5WQbj68jaql65/TizJ9aCkepqWyq2D/uKK+tLi271zha9nXTxZyZNigomPVaYKkkH47csUAFATxfqBGAhfEtPZxPH+lDLJSwTxlwLJqys46QyW2S4Zw2WkfE6bghsa0gY54H5y/T8rOJcrNfhONYjPZ1rPFABoONuAXDWkSuBBF9XXvi+CIfPhdm6woNvJFwIY/Q8KOdVRjh8Tm3JmPf0/Ozj3CV4GBmO6sseZxwyUAEAmWuXaZrqk3hTucXgk9kzcsiey6FankuDaXkoHL6E6qap47NIfuoC4OIfVwBwYoV1YmEBuXW3XphFnHQyC8s7mGL7veBYbcllMDdo5xk3xW53WyY57AL7Ap0BMBtDOmV5RpJNlV7BZ5xMTR41GqCKDvOCoqU8U6nl1a+1/ou3LJd0LESGlP4F26dABQD9CGMk/kWjIjD8NUqJ/Yb6LRbc8+MtuGO0GMs89gI539wl2ae4EoYLWmEPHeAXKDKmxN912sJCJoxUvdxP/C+rIg9B9VTrMFhwVyJdp+dhFl420ih4wp2XfQpCdalVOLWi2WNLhAxWANzUNy00H0YnNuk/p6ol8g14IO7UIZHeDCda1WGSz0b+Gr0M7opbKptav+vKyzZhKlcfsAnemS2qZHCBCoAz4RaAzF0A5FiDFn7aQ/wOpmKXvlRe+PeF5YVdeTJ6Jco95iJ7mByDHjjfSSico3QgyZTbKtILs4gHKwDFPtJpUDiC1NN+4xVrto4WSr4AOEenY535HIvwFbpv/oXyk3cJKS/HyP/MbgNOVQHBLZ6+etuxdl6W4TE6HCytf9wZAJXzgU4sdsKn6mk/cVp0jZh4DmtenIFw7WAHfENdSdFGL67a8rFbIZjZqBJ3lEEFhsyeJdUvKvdC6gVOk8a+Y6xeDCsjkM2ljTPYGcDV+zZiCsHDrAWwqbn9Xth/F+n4wOCfwG39oitPS8DF/AfGxf1aFkBEqTm6bZ6e5ycOgbvcHDA0NvuB76+uy2zsr3J/5TTdw2bsQ7seqYs9ctvwpvLymJ2XSTizqb2ccfM1dF4buepdwM7C5g6bDdVrXZmhPMVjUDas28LLxQEWlabJxfOw1r9kt0WzAtbLpQ1lRa/ZeZmENAs3tkT2gY6hdn1T8kKsPe12OtcwUAEQMThC3InOj4oTJs6qKy14J56Ox77+6sdDu/K7x0gVK8DIPRFm5hjJ2Rgob1o8R8Zr5h6DEPZAUq/Au9qBadEBXdbOTNYBSbbTQp6shcrm1nEwa/9ml2FGHqgvKTwcbm/P5syu4T90Fjf/oMkhwPzXUTItXirPx0jasKklUowrKmegQ2ei86fjiPGMg/zgsWA6PoyDvg2nCKxrcQqsFjg/Ao1cjbZ7P2oHCph8Ghg023ABADOMv4OB8A4X8p3aycXbMPLPc5Gj+MYgmU+E2ORQPJBvZkvr3WD0gzYydIBM08FoaJid908S7oYK7YIQjrPpRR8eXVpa9D07HUQYmACsgxGjZwbMvzkg7OwgiHPhIBOTw7mHSxfIj2Ekuh1yyloXQrjlgEsXjPxBw1EnsP710iJfx+B6Jqxiy8n0ddGXZSInAq9e1TGiW5pX49R1Nhhzju8OQzFjcdwOtbAFJusFGG2DtX50Y6dblp8fe+/5c8ft0/IzjtLVlFB00HgIpRmiyLMBaWQLJdYqrk5C3vF2fqYh4E3Q3SQ4W9gzZHB9tidu1F5WAqhqbCvDOPumYnKmh2mp+4ARLDl/2+DqLanE21jH/ipC4S3kPu49hFcNOjBU13040Zqv52Ubr2yOEJ4f6vDAP4NOzMgQODi46yTFzFMxeSZhMH0RbDkTnOm1tHSgJHHg2Qsm/hess59nc/6dsQDIJNu0qn06LLq7wPRzktCSLmsT7He6jJXwWTcpDna+hxk0Jl6o3h059LMvWf7/eGbWMevGhFC0eYNVY3+qvWdo/vhko9fqa0vrmkzuj9rYYERgz8hfZSZfsLS8sMnJ7yeS0Uasqqn9so3N7RvRSENa5iv1No1c3AO5CPTEd6SMTahu3OraUdp0DTrQjbs+OvOh35lxQ1DMp3bIzMSMu4WYZLeLUV6AKzT3xNPx2Nsr20ZBxbjXMa6qoMruB4aEXbgFifUGZZcqoRox41ZXt0ScfUgcc2Is7QygK9yG5I+B6isSQftycLUQVvFCJUK/rZsyJmLXgzeyGWtCiZ1GnR/igN2xjii/enXkZDPGNur6GWvB40tLi79jwwUZwrG3CB2+VsPZDW//6bWTi1wulMqWyL9iIX/SqYeBVVdWDNXU+1U0t58qmHkdOP51l6vErkAhhI1bGYtjRujuZZNP/Egv0uMpZ8DMptZvw97YkJT5Fm72CraXF0+YUlQEhtXozLcaEIKcaM6HhWuWk+iLxGLqCZ35qPPxoEFynrdeUGmDm2RC7tbwDZKm/A8tbUXR56v0PAxuV18aSgv+CrfHXXxn8YkYZBWY6qv0+lYcQCTscCz6F8yIhL7b9RNmwJWNbcNDQv4aU7DCruSEJFUsONB1DyVziDn1EPla4wdHdvPwR6AibOfTpdza0uJNlE56h5SzrwPvc3b9VGHFqsjpAhYSZot1QE6WlBSqKZNFcGZLG+4aqd+4cHN+KS6DvUp51c3thaYyt4J91uBEj+GBlmN076sLti9BKgcXye7D4v2VZOWYEQt7huUn3FFyCWD6ishR4ZB6FVI93YsELoIm3I38fl158XpvWao07mn+N+bi5Vr5E1iM59bQgt4cedvTzhowYQryIOPkH1wDwMV/jNIJyWqQfoa7+K60d/mhGCpa2prB3Skajk3ik8Iza2dxc2ZL5AFQ4KwN1O+GkqJyrW7aKJ1fQH09jIGXbA1YgxvY05ZMGfOZjcQRAG2kpBHF9T5GtrHzgRt7wZTb4QNZ6GRmGIEuxf6ALXaqwxQVeXnHqWi0GngXafkYaOL8+vJCcmMkfOROlke3/QS4vptQmCQDnXqUf1L4A2JokmJW2dg6Cf18E/1y+o+BciMsr8W7D4zoQP4xcTh+c11p4TPxdP8xGmAbm9tuxaL9EIwWx5FHkDRIDGFOrS0Z9ymlrWl20/r1YdOIvehlPmzi15k0T8uG+RZys/MlS4CUoI/zESoWvQZrx496M3r/l1zVpmI+1fDDfKqPNu+QR7XSTEn60SzGRFiiF0It/WjXgSO+qjMfeA6YkqV0f+vwerwG55b1ZUVPchGC6W15cZ1iiHyiZIZzRmEJYM/BEfMx8893aiGCIfm7w6RR3p/u02G88dry8Qegpxfq+VJaC++Jdh5GRI8Q4bvttDckEzjTke+GFd+raGy71J0XTxlhdQ/62Gnn9Foz6hd2mkJMkMV07Knn+YmTYTKka+hk8MC1yUR/pqqjIvcRLkE+fIyGuTpizuQyY2fR7FRuWr1uBvGnSJp2PXQq345TiBHwiwQLSquA6+gpR7JWLWlUCPlQ0gJk9nk7f6aXu2gjpciEq1yvm2l88SVHf37E0M9gVamXdRhogTutI9ewad6GgkF2IVi1rXvokK+l0p92vUxD+iGEtUNMAkA+mZ5QKCWDydqhKZsENMMsfkZF49bTUlXOU1FaV/YnLRd8ZVD3S61b1rKLTNEddlskbBy53ibwe67pdiaFMBVrkm3P9Tp+47Djko4kLFDPpN2kwNT025a3PqzJcm+enSaPJqbm43baFUr2hCudY4LUMWbBPB0N2p6B36+xIj0T530r9XQQ8YlTil6GQm3VcdHojxqhBXpeYtz07an04hBCpcUhFX8MKtIxCwke2qdtQmkhTOhgP+y6V+gY0c5YWoRdppqUfLheKYh4DfoE/5CrHcI7qFs3AxNbwjTFJjO3DyrVWX+SYQobsTBcBs5msbcOH7Z53Q5HLSeDyypPhobpcNAAMbi0hesmAw4cLtMrBRGvau641GviovHBMhS9Mx1+JcWH6cozKYOBkRaHlKG7sRlwMwZn2mY0enUm+P3UwaZ6mqs+Z+9jBsileiasjtvIfavn5Rzn9DRA4ofBeRNtABNLenNwTtuYqizTfEMYKVWqZQEy+a1kuCCUudBF2kYtWa3M82a2tB+D29v36BCY/8uFKcV/wiTaZxdgZB63H25XO51reOXKLcX4lWLSWWXNAhFNuQew/EY40M+WBuied9JZMnmx2F0u09Pd0ITKpsiX3VnZpehkDhu95VA3h9sYQNsBbvJnBW00wIgH7ILeUH2PLsS687JLhULGLegkrTX2121HKMQY+yYJSc9zxYX4gSvtI4FG70pV3RoYjN3sKdc9pbggwW/3lPtOVqzYMdIw88gn5rizCQkEMq+2vPBjizH1pQUPY67FV31wDIvXs1UtrQvITeG71T4AOu3CSn+DC14p8vVr9jDLM8JGyg1Tr5dSPuLCkVFCLcANhj+mqspD/EGogDy7nPY/6DU2TPGPZi6dicRz/MWqm1sniFDPm2DyFA9kHZySP6U8SwAwERUPh68FEa7THqjAO+Gcer1y9ZbxHgQZJQd93lkB3CPsyph2e+GSXQSr4z47zwqlqqpuaj/PlaclJpQU/wC2zMNaVj9RtWBCSZFL3+oAlavazsFbQdV6HtTDfUtLilfqPKCZK6S4Xq+XSZwGLc4Afohfjf4ZxkeRB+bPUaPneuI55fcKABH6YZuRFy7HwviGCwC/yVWmWF/Z1Pbvfh/NgAC/6sLF2PO0yTM+LlisdxTEQB3KR1MtejUwR+vKiu7ELL2E9LoHp5OkMqxnF9NhCcE4BXoERMEf9TC16WRjnTmtpPA5SkPtPO3kI4IZfHUNeSUy/OBpnYpB+2dUn49/blOWHqeSnRfSb6BtdHEi+nKIyVLkEzEz7Ep2iMqfYFref+Swz57t78yWdB8P9fwPuumoMByinAm99y7hI0cZNkku/wi6Pweu30V2e6lCa0bCUQju9G2y+Ha8wtJUN3nc5lQwdv7M5tarseY9b6etUDuQoQUzHMv7ECP3MLsO+H9hfVlBo51OFuIE8WwI70HM1KnJyjHrf9N5IHbLy5ePc62BCQKwgDFKME1vhfSxNrju6vQWM/Uh8p/GEy/P2H5tb6M4jLkJ4+cXWn7CzQicF7zmIlixnYMM4xT9wEKDzzl6zetbDu/qwr5H8/djQP2xoaz4Eh259+wYquTXDaWFN+p1KE4zo/emiHk73cL2llMaPNyDJ3Buri8pcpn7dt3kUwv6CUeDPzOYdaqzxq5sh2A+2e7zTSW2VTRFFtNoTvxhnHSpH6iHRL+6yW+DKuqx8WLUje6SJk3dQ/J19RjzdOZT27igNdfbGLST+6yAqUq8R5Fv16tc1VGEF8HmbWpu2wIO46ZIEuaD8+hPLSygiamYT/iSzwC7JQoxG3BM9zUwfQFSqf0qGL0wKZfitaYG3GjbwgwVoUXMRgU/yCne2wdUVtXU9iBuqN1t18MaZOLXrefXlhS9aecFEWK2TcTp7npdJcL0eGhpWWHCYk2D6UgxZgcGzVF221Ah38Gqgjtlqhp9vMC1htiV+kJrHeXqjvqSsQmD11M1AwH0QVg3yPI/vwmGOx0LphYECiH7qN5RZGzAtY4zvI1TuveJm07obl6ApPVB5ps7D8a+6NWXdrnf0DrSPKptHeDOdmBxnWZI59Dx5K938rQIzp+xGPOku2StmisKutdiyD2Mhwd/DwFBfv1//c8ADw56hlLuGjwb1sYdyZ4C81TvTZLPXbA38NjPO6BrA0543xUjerbUjh9vqR/sOKdhKCzTYUHYfNjxbnNVr+Ajbv1ikvNHXSC4TkLP4tRAj2/8U9sJSvBTcW3yLMziszCEsGniBa76qRMx1F3GmYmb0/7ft/MtAJ0Ost1NJm8AEnr/zbEa9Dqp4qRqALcdC1wrfD4RqK1KqKwj7Po0iwzo1hHDdq3vz+KyYbwh6e1Yd3cxrJPXoUKH2uVo+3OkV2ABHodBRLtwt7loV0wXkotEsEXRHr5k2dSiT9JVTVeWkwBsxKSeOvM7p+E+TQUWtcv8CsPGky7EmtYJYnHFkPdAOPRLSRMjb18cRh0Oi8oAc6H92HCM5MPBZNgRgX47cL77K7RQ39+9qExbDUQAemNkHYDIGifPsgaIJ/+UH/mGRtqUY2e3sqG0KKmdb9fxGzpWil/AVPVxpHmBu4zfjJOv4zA68f4av4uer8TUf49UkLve/2kqRjT1Pq0JGkErfvw9Cps7l22PUXROormdG92h3MDd0LSgbWqJwNLQBjwW375z349Qe7kNQdbP4IPRAlh2J8A3cKzEj/TgkICgDPzD02eaD8mGySUkFQZ9vxqm6DbgJsdbO96z3haTse3ho3u21/UZBHob6M8e9Ofv6M9wykevho0MH38yorDagvkCFcCmpvaTsOuziLXIg/WDK39Jie07+H8P9eif65vZsvUC2OhNyHTooxEaCvGZUhl4xy3qOPgcQMl7pAj1mpTSfBz505wyRDDVb4VV9Rs9r794DfxJ2Ke8jX3KhXZdJY1TEU/aJ7uOn9DpoB+glHWx2cL0dT64sDZkc72FNjDYON0DXD+xkZHJK0327brSMQk7V7sOhdblWw/zMXaX4Gq8L+bbOOG62wR4RwCg6RS7LIgw0DUAWw+ans6HC15/dRI+I3VTCh/BBu4lD9i/VTW1Xu/Jc5Lkf4c6e8rJoAhuYwweFLvFlecjAX8CBKB98h9YALhJ7BIAloQPNNL9RaGkcZH3RhwddeiAsESeql619Yt6HsXpB4Mm4/Vg+BC7DOZqDzPlV7P9kR/hwe+W/2bjoxC/IaZ9Q2BfwDNAFuiUwWZv1dN+49bje1xcZTGyDxg486XJl89cGRlj46PdebeM1WGRHGvnUQhz+G4/1+l1WDuOe1I77XhvKEa607mlAhUAfCEu4vBreA/x/omFKnoDjJwDdRRfXeBO5iH5Mo16wih35T8Jdpe7sMMTaR/7ufL9JkT4Ux0EZLj6qJdlEw9UACAgbgEhwQ3vi4PZkIg3ycqKX4Aunu+GFqd2yWgDnhm4H/k4e4h/kNS6w0x+LdRRXGjxYn+xHcfv9QAMz+X5Gw8uss6C+6AC3OZhlHuJz7qx+tLCeXAAPqcjID889tgeh51qj0VZRUA3u9mno5rQrfgHFSgODNsamPUYqADgf3ER242bSHHSc4xhNI8atucGcgekxEReV85n5OIc8+LO7zw+wZ90zmVjo9562aYDFQD0dPx0CxSF8oJ7tpI6SF5RvIw7C2LdlqLD1wTlJLPxhw838+x4XxirSXXg76mYSTJYAXDteBGtK276clFnQrCKxqqBOfmBEGfX0V9KygRPpnUGRUPOqRjBQA0ezBQ2k3qBCgAaaJfeaEiJY/R0rnEclt+LC65Pkx5Ogaty8DDjlSBfz8VPl1x9wP2hVLMvBUnps1N1JD1U6lKX3Q+TbUzqqpmX0GVhOvzHAvMj6HhnnQF+uvtDLmPnw8apLBZma3O50eYgo4iIvxdESezuIxQG9QUrAM7cApBJfyvri3bacO0XZiNG3mwdEOtAFJKYjTfcJiF/i15GfiMh2Rt4POoKPT+ruHL/bQJIxNVWVjg1oEAFgI3YmxpuckGWutI+E7hbdB0enNwIROfqoNDD+9DWdNof0AN6MiQnY2y+pddBejjOoJfBqfdoLtft4V4pc+HFL/Jd6RwTwQogGl7RpxZssk5L5rexC1OFpD5wUL8ci+1CjHznSrdVn3wzXJzbUF74ig3fcMHYnUIeLMO2y3X5yVor8OPuvVy+lenrJTZOCukGHnBCuL0fZl0Pj3U12ekgwkAF0DD1+N3o9DqdMPht7tXT6eL0vgSugzyOi6J/gbL9SmJd/gcTL3PRYxneMvoR3NLSwlkQ2t3e0zZSSaZU6yoaIwszfkkXU4yZAi6O+IfB8Frvj+3iebnGAhUAEQOy6TAk/uEP6eCm8K3xjMQYvSUEC+epHh7qgOqYi2XWuU9KtcFQPJ7Hvj+hpGBa2h9OY7OGi7k/Fgx/uVVJOoFzPpoN2JVch9dLtuAv7P0s7W8SAFXV3P4AaCl3EFBE8kdc6QAS6FewH47xxIbmyCYadTpmqKbfgQkNOGfdjB9A75dRNhp3cU7HCLgKp11fttSFDtAXx1Z6vcGN69L90iUJmOWe7oqZeC6AXZOsnGYJ1AvdXPs9SF6r8szI4B5TdrO8sdhn3Qxra44Ohwmxtr6s8AI9L4h44AIgovB7qLPQvzXYF2T9WzMwfheG/v17VMfTfl/e1RlT1dI2AwJ+BB11uar1Ov3FQcteQ8pJ1vvU/VX2WX5IBEA04D2ga0H4rxD15bgCzAH8eOJJHpULgvojz/SDCTzEQdcM74N6G0X0ZfpZ5q7gs+gWXaYwfuodMgEQEfR2Dj0/n/JZLxelOL7k4ueiWy0OivEu9Ej03UPFrW3rzufZ3vKEtMLNPS7nNJSO/VNCWUAZh1QARGNvp7tnw6S4AjcainG4ciJuGdDVwE8R3wr928RCsZWZ/LgioD5baOiv8OHvDE/FylqOY8+TFROjoPJwm461wwL7AOcPzxtHHmyw768G2fYArgEODHBggAMDHBjgwAAHBjgwwIH/BTcM3ilLZsidAAAAAElFTkSuQmCC;" parent="7" vertex="1">
                    <mxGeometry x="248.22" y="82.04" width="51.97" height="51.97" as="geometry"/>
                </mxCell>
                <mxCell id="31" value="Push" style="text;html=1;align=center;verticalAlign=middle;resizable=0;points=[];autosize=1;fontSize=12;fontColor=#000000;" parent="7" vertex="1">
                    <mxGeometry x="139.99973684210528" y="180" width="50" height="30" as="geometry"/>
                </mxCell>
                <mxCell id="32" value="Build&amp;amp;Deploy" style="text;html=1;align=center;verticalAlign=middle;resizable=0;points=[];autosize=1;fontSize=12;fontColor=#000000;" parent="7" vertex="1">
                    <mxGeometry x="284.9997368421053" y="180" width="100" height="30" as="geometry"/>
                </mxCell>
                <mxCell id="33" value="Access" style="text;html=1;align=center;verticalAlign=middle;resizable=0;points=[];autosize=1;fontSize=12;fontColor=#000000;" vertex="1" parent="7">
                    <mxGeometry x="506.44973684210527" y="180" width="60" height="30" as="geometry"/>
                </mxCell>
                <mxCell id="6" value="" style="shape=image;verticalLabelPosition=bottom;labelBackgroundColor=default;verticalAlign=top;aspect=fixed;imageAspect=0;image=data:image/png,iVBORw0KGgoAAAANSUhEUgAAAQAAAAEACAYAAABccqhmAAAAAXNSR0IArs4c6QAAAERlWElmTU0AKgAAAAgAAYdpAAQAAAABAAAAGgAAAAAAA6ABAAMAAAABAAEAAKACAAQAAAABAAABAKADAAQAAAABAAABAAAAAABn6hpJAAAJ1klEQVR4Ae3dUXLaWBAF0DDxQvznZYR824vITuKsZDZBvkO2wWYYyUMoTGzTCEmgq5OqqTFJS3p9OrqgV2PPp09+ESBAgAABAgQIECBAgAABAgQIECBAgAABAgQIECBAgAABAgQIECBAgAABAgQIECBAgAABAgQIECBAgAABAgQIECBAgAABAgQIECBAgAABAgQIECBAgAABAgQIECBAgAABAgQIECBAgAABAgQIECBAgAABAgQIECBAgAABAgQIECBAgAABAgQIECBAgAABAgQIECBAgAABAgQIECBAgAABAq3A4poMT09Py+b67T+fttvtl/bffhGYi8BisfjR9rpardbX6vkqAdDc+M/NDf/9Wk27LoFbE2jDoAmC57HXNWoAtO/4uxt/OXajrkdgAgLrXRCsx1rr57EutLv5fzXXux/rmq5DYGIC9816vz08PCw2m816jLX/M8ZF2ms07/ztze8XAQInBMZ8PB7lE8Dj46N3/hND98cEDgXG+hQweADsdvqfD5vzNQECJwWWY4TA4I8AY36cOUmqgACBVwKDB8Crq3lBgEBZoHnz/FIu7lg4RgAsO67NYQTmLrAcGmDQANg9/w/dg/MTiBUY+h4aNABip6IxAiECAiBkkNog0EVAAHRRcwyBEAEBEDJIbRDoInDX5aCRjnn5xoiRruUyBIYU+PNNcENeo9O5bzYAmu+K+n3N75PupOkgAm8IDL2T/8Yly7/lEaBMpZBAnoAAyJupjgiUBQRAmUohgTwBAZA3Ux0RKAsIgDKVQgJ5AgIgb6Y6IlAWEABlKoUE8gQEQN5MdUSgLCAAylQKCeQJCIC8meqIQFlAAJSpFBLIExAAeTPVEYGygAAoUykkkCcgAPJmqiMCZQEBUKZSSCBPQADkzVRHBMoCAqBMpZBAnoAAyJupjgiUBQRAmUohgTwBAZA3Ux0RKAsIgDKVQgJ5AgIgb6Y6IlAWEABlKoUE8gQEQN5MdUSgLCAAylQKCeQJCIC8meqIQFlAAJSpFBLIExAAeTPVEYGygAAoUykkkCcgAPJmqiMCZQEBUKZSSCBPQADkzVRHBMoCAqBMpZBAnoAAyJupjgiUBQRAmUohgTwBAZA3Ux0RKAsIgDKVQgJ5AgIgb6Y6IlAWEABlKoUE8gQEQN5MdUSgLCAAylQKCeQJCIC8meqIQFlAAJSpFBLIExAAeTPVEYGygAAoUykkkCcgAPJmqiMCZQEBUKZSSCBPQADkzVRHBMoCAqBMpZBAnoAAyJupjgiUBQRAmUohgTwBAZA3Ux0RKAsIgDKVQgJ5AgIgb6Y6IlAWEABlKoUE8gQEQN5MdUSgLCAAylQKCeQJCIC8meqIQFlAAJSpFBLIExAAeTPVEYGygAAoUykkkCcgAPJmqiMCZQEBUKZSSCBPQADkzVRHBMoCAqBMpZBAnoAAyJupjgiUBQRAmUohgTwBAZA3Ux0RKAsIgDKVQgJ5AgIgb6Y6IlAWEABlKoUE8gQEQN5MdUSgLCAAylQKCeQJCIC8meqIQFlAAJSpFBLIExAAeTPVEYGygAAoUykkkCcgAPJmqiMCZQEBUKZSSCBPQADkzVRHBMoCAqBMpZBAnoAAyJupjgiUBQRAmUohgTwBAZA3Ux0RKAsIgDKVQgJ5AgIgb6Y6IlAWEABlKoUE8gQEQN5MdUSgLCAAylQKCeQJCIC8meqIQFlAAJSpFBLIExAAeTPVEYGygAAoUykkkCcgAPJmqiMCZQEBUKZSSCBPQADkzVRHBMoCAqBMpZBAnoAAyJupjgiUBQRAmUohgTyBu1ttabvdfnl6enq+1fVZF4GqQPt3uVo7dt3NBkADsWzglmODuB6BOQl4BJjTtPVK4EhAAByBeElgTgICYE7T1iuBIwEBcATiJYE5CQiAOU1brwSOBATAEYiXBOYkIADmNG29EjgSEABHIF4SmJOAAJjTtPVK4EhAAByBeElgTgICYE7T1iuBIwEBcATiJYE5CQiAOU1brwSOBIYOgOXR9bwkQOA8geV55edVL84rr1c338vffjvvr/oRKgkQeEtgsVh8Xa1W67f+7NLfG+wTgJv/0tE4nsD/AkPeS4MEwOPjo3d+f3sJ9Cgw1D31ucc1vpxq92O8vvV9XucjMHOB+4eHh8Vms1n36dBrALQ3f/Nx5XufC3QuAgT2Asu+Q6C3TUCbfvsh+YLAoAJ9bgr2tgfgnX/QmTs5gb1An5uCvTwC7DYolvsV+oIAgUEF+noUuDgAbPoNOmcnJ/CeQC/7ARcFgE2/92bj9wmMInBxCHTeBLTpN8qAXYTASYFLNgU7bwLa9Ds5FwUERhG4ZFOw0yOATb9R5uoiBMoCXTcFzw4Am37lmSgkMKZAp/2AswLApt+Y83QtAmcLnB0C5U1Am35nD8MBBK4icM6mYHkT0KbfVWbpogTOFjhnU7D0CGDT7+wZOIDAVQWqm4InA8Cm31Xn6OIEugqU9gM+DIDdc/+/XVfgOAIEripwMgTe3QS06XfVwbk4gd4EPtoUfHcT0KZfb/5OROCqAh/dy28+Atj0u+q8XJxA3wL3720K/hUANv36tnc+Ajch8OZ+wKsAsOl3E4OyCAJDCfwVAvtNQJt+Q5k7L4HbEjjcFNxvAn60UXBby7caAgQuETi8118eAWz6XcLpWAKTE9hvCi589J/c8CyYQC8CzaPAj7vDjwO9nNVJehX4+fPnfp+m1xOPdLLm0+V2pEu5TAeBdg9g2eE4hxAgMHGB9s1/vwk48V4snwCBDgICoAOaQwikCAiAlEnqg0AHAQHQAc0hBFIEBEDKJPVBoIOAAOiA5hACKQICIGWS+iDQQUAAdEBzCIEUAQGQMkl9EOggIAA6oDmEQIrAXUojqX2036w15d6a/9x0ysuPX7sAuPERNzfQrxtfouVNWMAjwISHZ+kELhVoA2B96UkcT4DAJAXW/zQ/FOD3JJdu0QQIXCzgEeBiQicgME2B9icCfd5sNuv2fxrQtLCcZhtWTYBAB4F189Omfrx8AlitVs8dTuAQAgQmKtC++7dL3z8CNL/xdaK9WDYBAmcItDd/86a/bg9pP/q/+uVHhL/i8IJAjMDuxn8+bOivAGj/8M9/feYnBh9S+ZrA9ASam/73btXrP+/60+vCigkQIECAAAECBAgQIECAAAECBAgQIECAAAECBAgQIECAAAECBAgQIECAAAECBAgQIECAAAECBAgQIECAAAECBAgQIECAAAECBAgQIECAAAECBAgQIECAAAECBAgQIECAAAECBAgQIECAAAECBAgQIECAAAECBAgQIECAAAECBAgQIECAAAECBAgQIECAAAECBAgQIECAAAECBAgQIECAwPAC/wFLzVCDNI9x+wAAAABJRU5ErkJggg==;" parent="1" vertex="1">
                    <mxGeometry x="170" y="300" width="80" height="80" as="geometry"/>
                </mxCell>
                <mxCell id="8" value="" style="dashed=0;outlineConnect=0;html=1;align=center;labelPosition=center;verticalLabelPosition=bottom;verticalAlign=top;shape=mxgraph.weblogos.github" parent="1" vertex="1">
                    <mxGeometry x="330" y="302.5" width="75" height="75" as="geometry"/>
                </mxCell>
                <mxCell id="10" value="" style="sketch=0;outlineConnect=0;gradientColor=none;fontColor=#545B64;strokeColor=none;fillColor=#879196;dashed=0;verticalLabelPosition=bottom;verticalAlign=top;align=center;html=1;fontSize=12;fontStyle=0;aspect=fixed;shape=mxgraph.aws4.illustration_users;pointerEvents=1" parent="1" vertex="1">
                    <mxGeometry x="701" y="304.5" width="70" height="70" as="geometry"/>
                </mxCell>
                <mxCell id="13" value="" style="shape=image;verticalLabelPosition=bottom;labelBackgroundColor=default;verticalAlign=top;aspect=fixed;imageAspect=0;image=data:image/png,iVBORw0KGgoAAAANSUhEUgAAAPsAAAEsCAYAAAAFPsWFAAAAAXNSR0IArs4c6QAAAERlWElmTU0AKgAAAAgAAYdpAAQAAAABAAAAGgAAAAAAA6ABAAMAAAABAAEAAKACAAQAAAABAAAA+6ADAAQAAAABAAABLAAAAADnO38sAABAAElEQVR4Ae29CbwlVXUvXMOpM97bt7sh4gOFJ2P8maCfRLBlMDFIK5Lo+zS+iEmTp087gvKUJE8xRhvjEDVPIwoICErHKe+n3xdeCIRBksjQ2ojx4TNGNBiN8NlqD3c4U43fWnXOqbP3rl1713TOPefeXT+au/b6r2HX2rVO7arag66pQ0WgYASC/7mj4fTNW/2Kdpv38+CLrTc98ERBk0p9AhHQJ2BTmdxkEeh+9pzP1o+uX6z5muauOX3X9r6kB8Yt9d/5yl2bLBQzfboq2We6eWa/cu3Pnfuy5lL1/3XarhZAslsVXdNbFU2zfc33/G9B6n/ScfwvLO568KezfzYbu4Yq2Td2+0707JY/vGN748nmP1ut6jF216N86QYkfs3UtKqhOcv2Ed/3/8oI9Jurr75vPyWoClOLgEr2qYV64zkKu+/b6xfby47w5KqNQdJr8IPQ77pfCfr+zcuV1S8+edcjbaGiAkuNgEr2UsO5eYz1957729Wjqp931lzNDwINOu+JJ493+dFhYRff0DX7UP+Hmht8QVtzb6ld9tXvjHD1d3IRSG6hyflUluc8Aqt7n/ekWrXyXatqbu3bg+67KNnxdMmEx3LYxa8bmrvi9H1Pu8OsejeZrvdl/ZX7uoiro/wIEL+55RtXFjdmBKpV63pr0dra74+f0wMtyHSyDug60P2vmEatulh5mdmq/43tVz+XyYgSzhQBleyZwqWEuzeffQkmp73qwu2ajoco4fFNPe9wXF/DN/n42c73vA5PRvHKiYBK9nLiuCmstD929rFm0/wLre/DfTzbnRwDlJTwo+BBV/9rI1r9LT8CKtnLj+mGtWht1T/Ndt/Zk83zIxDagO/ygaP/b9aeKpcXAZXs5cVyQ1vq7j37tdb22gv7K/CZjem+sycuSnje3b2Cb+e7bsfVPPVWng1miWVJs5XoSZma2wh0955zvFE1vmNVjKbtDB++JVdOlrfz+GYeR9uZ//c/nD63QZqDiqs7+xw00npX0dS1T1YXraYNXe20h+juHrMBo+zgzv6tGF8xSo2ASvZSw7nxjPU+f87l3O579vdzVHDY7nzg69+kBFSh9AioZC89pBvH4PInzjrFrJgfDJhx79EZShI+9d0dPr8Zuno5F8V1QoRK9gkFdiOYrS1WP1mpmrUs3Xf2vEUJj3d3fDnn9rx+4Pv/wuqqcrkRUMlebjw3jLXOX577R7Wt1fP6OOBF9DJOcneXBUS3DM2z/X+rP3b+j2WyCi8WAVEzFrOstOc2AmvX7/jl2vbqQ4av1RxvmM2yK0WCJ72dh9F4GozG++vab//jf5rbgM1JxdWdfU4aalrVDPbsMcyGGXbfHbfgbZuodGJ3Hrrxfj9Qg2mIWE2KVMk+qcjOqd3e0+59Z/0X6mfGuu+yvJfhSfHwA823AvUmPik+JfJVspcYzHk31b72rDMqTf0dDo6S4x2yhJbg7N0dl7CCcXOeu2J/m+dO8cqNgEr2cuM5t9bC7nvLuhnevpv+6Dl9AmdDJryOXXjb//EW3f23CbhSJpkIqGRnArJZi/bT7nlf7eja6X1YeUZ4SO7emSbD1QxN94NH9d0PJ3QlhDVRYMYIwBpB6tjsEbA/e+6ZZsV4Ky4xFR6Y0KK36wVxvLuHb+fhzg7f2r+x2eM/rfNXd/ZpRXpG/QTXn2HB2Ja9Bnzv9mEk21QPeDmn6WqY7LRirpJ9WpGeUT/dav2DMHjmtD5MMKWOot11iT6uSYfDcJ2uq17OUYGfXEEl++RiO/OWu3vPfX590Xqzh0tBR912IksJknsyMpyrNGDCdFnNtd0DrW3a9wViCioxAirZSwzmPJnC/dkMU7sFc9yFpaAncojMwrxZP9C/q1aTnUjkuUZVsnPDsvGZfdf8SHWLdUKfO6ONyFKC5EYlLw7f2DU9UCvTcIM6GaZK9snEdaat9j5z3gW1urW7P1ohlpuwBJMgyzyxwA0eKtOesiWOgEp2cXw2HPqTvae3dD24AfrQsHZzSVksM8PgMHc9fDlnmoZanWaKV5hK9ikGexZcLfVbH+V235mEHNSVYBIk9zwy4BV4Xndd/8jaWue7XFuKOZEIqGSfSFhn02j7prN/s35U/bWJK8RyE5bLLHSCwznsj27f/fByIUNKOVMEUo2gu+Pue9+ysLDwK2urK1MedZHpXDak8MLiFmN1ZfULF+789b8pcoK4vbLV0G/QcNx73vxFvegTHac2aXHcw72i/RPHQirWHXfdsxvicp66HjVtcH2s/K8Ld57/V7LgSZP9rnv/4U+Wlpbe7XmetmVpSWZP4SVFIIDPYYuLW7Sf/eynh23NfVtRs9VjzI/hPuqJd/WRA27CEkyCHKlQf2X4SFjX/nlEZv0Lg23fuGXLll8yYLjtZj8M04SEX7j4b//u7uZLXvTCT4niIUx2THS4o7/7yJEjmu+rm7ookGVjhgHDVyHmjt37rZft3PnvRex3bnjey+sN6+L+6nC+iSwhZXiByoRj4nH7qJy7v9x2223boGvyVPgR1BxHzZ/Bm0K1WtUWtyzeDAmviRI+8Zl9lOirq6sq0Qtc3HlUsQGxF7XWbt/44gsu+HIeGyOdlet/9ejKgnFNoe57aAx/AYYHQY5Y1F8Bjp/XbdvLvfuLXq2eVKvVllyXGd5LVWDzFHT4smHbdvhvmPD/JensucmuEj0pXNPhN5tN7cjhw4+bvvuWoh6rVfsTYfe9N95eObQpSMhknFAiSG4dE3CccBP0/e8v7nrwp1w9CdMIjGc2Gg0NfxDVMYhA2oSPJbtK9PW9hLD7jv+0wLtk586d7SK16e8997dr2+svj7rvrDFZvshw1l6asgXf2Cva/0kjypUx9Gdy+ZucmSbhqWd2WaLjrynedfAZQf2wln91QY9Ma7UWtMefePzGCwt233F7Zb2qX+fDHX3UVuW8zsJfgKElguRGg4eHc9gLTWt9Fq8LP3p2xetzdL7cOm0AJl4nvV4v/IdJPjpGCY9l3jN8lOyyREcD8FZeW11Z+Vqn230Ey+ooPwLLy8s96L5fWdSyUQ9utKrm1h6+lBO9teYlJOmci3OZpFYyDSvW5t395c4772zBa+IT8RmVPfAGBC/sHj+yvHw7i23EMuT4efBF4rSVlRVYEiBdwofJnibRt2/frh0+cuSOox/7/kt/Zfdu9Rp0hq8g3F65vlS7cPCZDS6EYW4mpmgikOIkZboEbsGPjr3q2IEf5Nr9BS66p1mGcRx+BmYPvKPDD+X/c+ELf/1yFtuIZfwqYVvVv9u6deuZ+LUsTcIbwwEz7xa9dd+6bdsg0b//qEr0Gb9ycHtls2r+uQc7uZTWncWEjR0EkyBjYsgY4uHLOV37Qd7dXwzNfEar1Ur+OhQEm2YhjJd8/evLndXlF/W63f2Q8NDWdCOMuvTYC4Lv8Dfffuc9/9mo1aofliU6/GLecbRKdO51PGtM3F4Zu++x/dmG1wJ9SRC1TwSGMlycyySMMiS8nNNN4zv6nj35Bm2Yxunhy0vGLF7Y+AwLDwj5X/wxNme9iDFMm/D4QwCTn95jYObzBsygAN7RVaLPerOP69e5bscbrS3VF/bWHA2XfUo6MqZokhmaLzOKOHTji+z+As/6/xfvWq1UKpjsy77dyT0qjz6Z+SilTXh87IEfwp7B3v5Hpzl8BlJ39FFAZvxv7+ZzTjS3WR/A7nvikSYhE5UB4OoTTILkmoGXc3l3f9kD21IFnnsK7+UcJjt8Ifj3iy666DDX7wZmsglfr9cTz5b7+4/dIvwHmwW8V72MS4zdbAE1/VPVqtmku++c7BuyOMjgfBKB4enK8ISoWPB84XTgo1nO3V+etWPHcdBdOZ43RNayqgDpDye43vBsTHj8oev1+ldnTnaMTtjP19zkn4kNH8L5OcFwe+UF6zz8zBZ+haESkipQJ5WMUGIpCoQlgiQVDUh2eAv/eN7dX2q6fir0Nqu8nujwnDf95pAQG258Ru3AvbOPQPV39iPQv+a5T4c8eo+w+86eRkJCRmK5cEKJICObMEy20O4veuV0y7IS3zqbgdpsAt5pCPNZCEYNpYiZjYC/WPl0tW5W6e47VJdKOKowOJchi4NQeGknDjNgCu3+omvPZL4uhVXD5/Vut2t3DT/Xt/vSzm8ODKlkn4NGSqpi97odb6svVc/swUu5sCubJCjhJya8SI+rRDAJMjSDe70X2P1FD4JfdN34WC5MdvgRePSl559/QFRdhcHHEBWE+YzA2vU7ftncUnlPuMFD0ilQCUcVBhocFmUqFx5Xwud1B8bo5939BUeL+ZDs/JdzFozUV/u7U+2WUIjGxifghdk4ostbtp+uGeZ2vW60DUv/ZmPX/T/KY/jQ9WcsNRrNZ8Ev1H/wep4DF8CjC7v35V6hFBMGnnNONeum5a30f7iypffIk3c9UmimWZ7zyqqD2yv36/d8BgbPmF3ZXR1zLxo6TRUGbocsDpK1WnH5oVEcJus4+Xd/wTnsMPZ9yeUMk8WvRtBj2DQj5+JBTs+ZWLJjIlWq+rv0rrez3qouaPDrjgso9Dter3vj8+71He+drUu/lupzCSZ5q964ErYu+d1qoB0b9kcaZni36N1yziOBF3y48ZoHbkl72jh2XA/0yyt+cDoMLR2oLdY007Ge6N9yzl9WG95Vs7xTSe9p974Ttm06vbcCb9+x9hPJ1GE0Zba5OMFEsgqr7tj5d3/RA+M0nMOOkz7YI7zbB55af54NDKc8kW782jU7XlUJtP01w3w5/OwudGDXkQ5sB4x/4Ze4Xq+aF1qWua999Zm7OXWiWMufOOuUllnbD9+Q3wo2j+1CdxDvZvgPXvhoNU0/vd6ofLp99Vm34B2PUmYKiHc+seNzdavySdRz4TlyZKtre1q1YhxbbVbe2u+aX8UeCaM+E8X2tWedYVaCd/Th/FMfmHDRQRUG3CGLg1B4ZIIluIoEE1ulwO4vga49O7yDM35x6Gyn07H70MNjIFXkRECYHBx5Kat77Y7nN2rG52DjvnobvvtiQpGHC3f3Nlyopq5bzaXaJ9pXP+c3SJyk8Y5e1Y27qzXz1O4RW+s7kN3EK1kP6G7X1Wy4wzWPqe/qHHXHx0h9lu5sv+NTjaNqr+rCcNJu36P3SIBqIg/91Krm6VrHux03VGBtrGcZt1c2WlbYfYcBT3RVmCINQonCqQIlmoxQYtkK2GwFdn8xTfPpvDns+CkOfvF/9M19+x7PVqHNKV1qsod7fdveTbjqJ96BuW+I4WrCrmfXhisALljDrNyYlFQ1u/K++pbqCR3Ypii6CCNi3GCY9PYRSPgt1Uvxx2aMjKm1j525s3lUbVcfknlsbIyTVBd+pOpH1Z6xLdjyJyR/vWm73vhT6L7/Yvj2vezKcOJKuciFwwQMfHyDts67+8vXr7/ewmGyvGTHOey6WfkeDKWFi0kdsgiUmuydvvEiSLiTOrCc4DjROVcJsDDhO/CDUN9SOWbJXXwFW1Fc57xSNXY5cBcePJiyEnQ5vNHBhQULsnLXbYMBwFdgkksXycXqQuU88Ov3vddh74L2tD6lzsfP3GFaxls9eBxKPDihpmQpnCoMxIYsDkLhlE2ywFHEBSb7bedw3t1ffnLSSU9NGiYbLuGl6/vIKig6OQKlJjs0yovCF3HJ/uIIdvFsfycLVCru2dV6ZcEhHgOiaykiSC1gwh0EOhXPxe2ISQQT1qgZv4JLNIUHV5/QAByfGOBdwHZ8+08g60Li+Zj1yqfh0QdOUVJ5CUz3apKFk5FsIQjnsBv69/Lu/mJ4Os5hr/Jmu+Hd3nW8b2ar0eaVLjvZjwuXLMZ4UlcLVRhEe8QaPHs+hW0C3aqcIBwFMNInFB3Ph26dttTrmb9AsDUzqDwpCPTtDvG8T+I8GsZxa1oFw+OfzMOnyeu2jfdVt9dO7cH7CZ1z3qXWRWY/K47d+L6X+/MoDAB9xmBWG32Ww5dzmm9ungUr6AhkL5Wb7Kx/6sKgCgNJDmtkInC8+HApAAUqI1XNXw44fd3Ap05WZmiEw80jMrwORHfvuc9v1CtvdlbgXcPo2WhUt6T6ZMI5wkMWBxl4TAT4FdIXzPxrFgbBM3iTX4bj5B9/8r/+a6ENNPg13phc6voveorwIuWfM3fj4Zcf7saxTydGxfwXzYEXPJxKRddaRAyELBPWJNe1A81q72ek2pbtxo91V/sZ4tTB6JMYPA4MXizVjO+Q/GnS+OLSMLVb0KcHJ0YdgrqHcjKcMlZyYeQbf5zgeSjv7i9YK7gCnsUbOYd3e90wHlFTsNO3HXP1p1fkSZpW5U5s3OEwlYHIqOHDElWITPhd99aoMCTqR2v7e13vQA1mSwmPocmwh14DWUO7R9/9MNUrwAEygandq8FAnLQHfH6D1U/cH1prnX9Kq1O2XLi9cqNyAnbfSz+opqAKA1ejuCY55qhQooDjHHa77eba/QXesBujrZ54b+IteBMPIyjXrW2oc52TgiSTsp1F49J9/wiDVP6+tghTEUlVqjAAsGvWXKho7SP9h5qHXvK3pDjSmKBe3/2Q0YJfcBaEMmuyDj8KsDiCY9jB/+CIa76uvd/rubDmPWONNTRSbpr4Nv797A/HCJ70X/xUWF+ovpbqvrNOk+o+ksuEc4SHLA4y8iD8G85h17Rcu7/g5zQcJguLMXC3evJw+yfPz/94IKz5xgRLTXYMkbFo/dde3z3UaiaNxIVLBxIdcbvnrml187W40gYvvK2Vl3yk8/PeXY2t8D2VyVGUH12ENXiRZsBdGwbwXFG77KvcbjeOoXd6/pXwVnvw3o3nEHjYfW9sq2qdA/1bW5fvvz5BbKJs/HpgNa2bcdQPvHOEY3SmHLcCKJSW4RyTqVky27jVU4HdX3Crp1qtHpvDji/n2u225mueGhOfurEmMOut/pr7H4MX7L9q+/6jzSVLa9ZNrQLduQpkEf5r1kytCcnbc7wfeo53gWgiC/4INI8xXtbvOV9qwB2+CT8QFny4HdnCu3kDehEwqMbprjhvar5h38dF5954w74/6x2xr9Qsw29ssbQG6ONOS5jgVVj5FH3UFiyte7D/+aZl/5bI1iSxelC9rrpkHdsbfSoMnckyK2eNKLNUYWBwyOIgFJ7kPfAL7P4CWz3xfuTxeR0+xT0O4+d+kORX8eMRKP3Oji4wgQ9X157dW3Ov7Ln+tz3X7yAf3jHBY7D/7c5B+yq7rT27+cb90gER2J2v/5cHX9Hteq9wjOBuSOxD+LUc1sv0XV17otd1boJvz2fIEh3944EJ73ScM3u+9zk7CJ7wfRxhD++RHP+Q4/t3w+i5VzR/f9/F69V9b9909m9Cz+JV1GCixEzDmsNRKp5sLBkZVCP2f3h/k3f3l6GtX+I+r+MwWU17tOheeLH6bnBGUl+78GkPp4r+GRj6M5xU4nS9JbNhLued3tp8/YNfAltfwi2Ia27vF3pm4DYWtR/nmZ02nG33ahyssnLIf0rd1iv9vn5g6fX3Hyp84gUMhNsra851MLtv2H0njGGmhR/ZOc8zKBbihHyZpMw2B8fel93zcu/+gsNk4ZPKqbxkH3533zRrxJfVlBNLdrKCeROctDGit+z+h58Djf8KH8Mfiu8VNlSSAdxeubpYPba3nG6IcCa3nISk9CmcKgzEhiwOQuEjmzC0V3Ntb7j7y/0jduq/jx9//ImwyORxvM9u+HLX93z1Jj51NAeCE+nGZ6yDEocI4LTgWtN6OdV9ZyODmSbqs4c4q0SUi+JDUzIzoVg4fiL/7i+WUcXVZGMbmODLOVhzDl60BLlH5RER2VTkVO7smyqiOU52de/znlTx9Wu8PrxfxhcSCT310DRmmqg7n8M/XyV0REMcFiVA4pDsRXZ/qVjms3jDZGG6qwYbRSxXgoD71YWqjypQEVB3dioc61Oo9LVP1VrWNnhJWLwCmHCiIxPOER6yOMjA6wiATzJ5d39BQ/Ad/VTe5BccJgsv/f5FvZwTNTIfU8nOj8vUuN2bz76kvrV6IS4xFR2jhIkYDBHiAiEBFFqS4Yy7rEV8OQeLS3p5d39BfzhMlvdyDpMdfhLVYJqsjQLyKtlzBK0slfbHzj4WZnV9xIPlumL5F2MwXkNcJsTopC1SZqnCwMKQxUFC3IQuPGA/zrv7y6333HMMpPtTecmODmBZ6VRrFw4qq/4/ioBK9lEk1uGvUQ9uxO57H1ftKftIysSRn0x4sjAXgTfxRXZ/sXzjZHg5t4S7j+Lac6N/+HJus23NPGquMv6qF3RlRDGHDVxss77FCrvvo1FimDjUu7kYg3EU4gIhARRakuGMO6oo0sU7u59/OyaIx5nbtm3XDh6kv7DiMlSrq6u2b3c31dbMVNwLFFSyFwheXlXcXhmm9X4Y376Hs/WIDBflUF5/ufWoylCFgckhK4bggiQFdn/xdP/WgwcPfcPtwRx+6oAlqQOvvRm3ZqbCkLOgkj1n4Iqo+bb36cZStdmBVXaJPOebjGUSIxbiAiEBFFrKhCcLjxCcBwEbeOTe/QXrdNH55z8Gf/CfOkqMgHpmLzGYaUx1rtvxRljO+tweLso5UsBMIQ6mKBxHE6qFCjEtwuIEScYtrpPna/6B1jbt+xP0qkzniIBK9hxBy6uCG16YTfMDTtshl78fmGOShinKE15UqZgxRjgTzhEessI/sICIH+Tf/YWpmSqWGAGV7CUGU2YKhoPcBDvbNJ0JLDwz+HbHScRRpQRQKCLDR3Zkf3HknO1/Qyam8OlHQCX7lGKO2yvD1FW6+876ZhKOKcrv7qFCTIv1kq9MmaUKA3sEC14+qhlp+aI8US2V7BMN78A4bnIZ1Ix3w6iycH+6KbjkuyASkiuQCY8L4zsIXJs/7+4v3DopZmkRUMleWiiTDRm+9ulGzbRcO54gMS1GhCkWv7vHDDI1kOGMOFnEN/Hwg5Z79xfSlqLLj4BK9vJjSllsf/S5exrbq8/uwtv3wet3yCZZQjE4U5TrUzUouUBVhipoOIc9KLD7S8k1VeaYCKhkZwJSZhG3V7aWKn+C3Xf6gCSh84SGi5ZC2wIHAih0nQknhOHOXmT3l6KnrfTFEVDJLo5PbjTcXtkwbrEsw3Bhs4vMB6PCFOU/FqFCTGtcDQE0FspOFdr9Jbs7pZEhAirZMwQri2i7Z1xV31Z9Rth95ypCtskSjsGZItdqaUyZMwqHCan4dq7g7i+l1V0Z4kZAJTs3LMWYuL1ydal6ZR/nqFNJwdoVgqxwvCxTD3GBkAAKnWXA8eUcLDCZa/eX+IkpziQioJK95Khi9x23V8Z95WS7K4euMyQUysfEYwzmhEJcJsTo5CgO57Dn2v0lhzulkiMCKtlzBE2k0q3WP1htWad2O8O94FFYmGsACvG4vkxcVL8YJjOWFsc38QV2f4nVSzFKj4Ca9VZiSHF7Zdi+4M39tQksBS2qJyZkNKuGIxjiAiEBFFpLg4Ngod1fONVWrHIjoO7sJcUz3F7Z9m7Ar0/c7jsmTOIBoBAHRQZnijE85iqmEJMoxoA57AV3fynmX2lLI6CSXRqidAKLy41B9x3Wk0s8hAkHoBBPtJoBEDgQQKEDAW7Bq3i7j7u/+P+SoTJKdMoRUMleQsBxe+XmluqltvTte0FnTMIxRfmPRagQ0xpXSgCFQgk4jpzzveCx+mPn/3hsTFGzFgGV7AVbBLdXNqtmuLWz4J4+9pKQMAMBAIU4SDE4U4zhY8cTpGAHXN33v5209fYEPSvTGSKgkj1DsHiitX7l6vqW6gmwy+wYjmXgGAopIQ6gEGdsZS2GtgUOBFBi3WGd+MCoqGmtWdtiyvLqbXyBgOP2ys2qsWu9375jflIv42MM5iRDXCAkgBhLgyLu/uJ6asEKbnBmh6nu7DnbYvnDO7bDL+V1uD2Jz1v2HRNGdAhxAIU4GGZwphjDRVXJjBHO8OVcD3o1ruOqvdcyB3K6CirZc8bbamofr9bNY6nuO2uLSAoWCssynKtUEjP0LaiAACLrji/nDFP7Yd7dX0o6G2UmRQRUsqcIEivSueF5L2+0Kq+y19ipq6xkkTJkW8qEG3mJiccYI8nh3xAXCAmgyFIFX84Fj+q7HyY2q4tQRcxQBFSyZ2yMlet/9Wh4HXWD58L2ymmSQSYjxAEU4lB5GZ7x/DKJo28YRVRk95dM/pRwoQioZM8YPtPpf7Lesrb3e8SDuizhiuIZ6hhzFWMwxkJcICSAQks4XLDA7i9MbVRxghFQyZ4huGvX7HhVc6v10i5038P52xl084tCMskSjsGZYmb9tHW14JObBxN+YCWeb6fVUXLrFwGV7Cljj9srm5b2cc+B7+nhBm2oSKQVQXJNFsJBuZA+t0YMU+AgCYLndc/xn1C7vzChnNGiSvaUDYPbK9cbFbr7HuoSmUCQXLMynKuUjxlzFWMwdkNcIMSBwjnsdeP7+iv3dRlrqjiDEVDJnqJRwu2VG5ULw+57CvncIpyEGtsCUIiDJIMzxRg+tj2kYgoxCZqBY+LV7i90TGa4pJJd0jjdveccX6mZfx5fIZZUJLKEIEmJiC6Eg7JMP3KUlxA4YCF4OacH2jfzelJ6042ASnZJvP1l58Zqs7Jgwwqx0bUeEaQywSRIUmIqNOObKcp/LEKFmNa46kPIhGh4tq+ZNUONnBtHZ6YpNTZe0Dzh9spbrAu6MHW11LfvmDDUYHamEkIcwACUc+szvnIWrYqp9W3vcKff+25OE0ptyhFQd/aEgOP2yvBl6UMOrJc6vJmFkhEdEaQBgkmQpERETxqPHHFu5ql8C4QQgmmtavcXIshzQKpkT2gk3F651qjUsfueeHAhgkmQiTZyASkMMyJMkfMLwFQkVIhpjYXU7i/jWMwJpZKd01BrH37OHzQWrHM7bf7gGUEKcKwJWDJDQhxAIS7wWxIUuOrlXEmhnIoZ9czOhLl/zXOfrleN90dv3zGhOM/HETsiSEMEkyBJiYiW4ZFgDoKxzRQHPxacc4s8hQoxrUE8+r6mtyrfimQVMfMRUHd2pok8Q/+MVTUtqvuO1/t6HULfAApxqDSDM8UYnuY0cZis7fpq95c0wZohGZXsRGN0r9vxtsai9eyw+07wk8gocSKClCSYBElKRHQhHJRl+pGjHERom3YQbs2saWr3lxzhXE8VlezD6K9dv+OXzYr+bhue07kHfb1HIhE7IiIICIJJkKTEVGjGN1OkqsmtT6hAaMGYeL/rqckv3GDNLlMlO7RNsGePYfga7s9mOaJJ6sT1XnqTymwLcQCFOJ4kXWOmGMNpaaaEz/mtyj8xXFWc8QioZIcGam/72/c0FirP7sBaaqL3VUltGSVORJCSBJMgSYmILoTLlCMv+YjQPPwPAwSfI2GY7P58hpTWekVg0yd7+9qzzrDq1pXRElOynEnAI3ZEkE1KMAmSlCiFltlmcKYov7uDQvhyzvY6IPyDUuqsjEwtApv60xtur9wLjFuqMHur3SPu6pgFeW7xZTSbzLcQB3DCQ2kdmPwS+IGlm/qd3VvOKeOMS7WhV0od2JxYN6th2k7PfbB+8f2/nyg0Y8CmTva1jvHBhaMrz+iswOCZLA2TkHAROyJIowSTIEmJiC6KR4bkRMxVjMHYwJluhm7VK8Yvwk6ODFhCUdbXLOpTVuW09mEEYa1V/WX7s+feXH31fXPxSLNpk7177Y7nV6vGmwfdd84VzmFRl3IuXKZEechZAB8Z7+6xWsUYTFUg4Xsw4y3xkCVUJpwjPGRxkEGVEoFhjbk4wSTI2DkSWG2hgtsGfAhknh+Tm0GG7Hd0BqtcvErB/9zR8G3vJjz58dt3vMKLH6mtyAQL4aBcSD9NHAQOBFBoORPOER6yOMig4olAmvOSyBC2HVh/r7bFOq/3mfMukGjNBLwpk71zwP/z5rbaSeHbd+KXOtYiRMPGMGQk4BE7IkhtgkmQpEREy/BIsDgRcxVjMD5CXCAkgEJLMpxxV2qR65tgEiTX7xD3oYeDt3bN8z+En2+5sjPEnPkKlh0r7L7DWnKX2jDYM3xQpxqWKgxcc1hUnYrilLGMBaFvAIU4+GJwphjDM9aumDhVGaowsDtkcRAKT6wEV5HLTDSBQB+uo9rRtdN7x9/9u0LBGQA3VbL/ZO/pLc3UbsGTHnffoUC1MVXI3URiKwRKkFxnhXBQlulznaZkhrYFDgRQ6CETzhEesjhIyhMQiMmMkjhMCjJqxlX4eCiwuO7Qpkr21s9qH6nXKydkHjxDNiyvyRLwiB0RpDLBJEhSYio045spyn8sQoWY1rjqAigUkuFjS9kpmW0uTjAJkut8iPf7nlbdXjuh26+8kSs3I8xNk+ztq5/zGwvbaq/rr8KWZLzndKphqcKgqTgsqg1lOCWcsSCzLcQBFOJQFwZnijE8Y+2LiVOVoQoDu0MWB6HwxEokKiZqcIEA5lRULP3tuD0YV2AGmJsi2Q9df8aSYVZu1BzYn00U9JIannQRmYwILipPKK4+YasoTpjKTIa+BRUQQKGvTHiycDKS9YwISwTJtTLEbfgUaS1Vt1aqzh9z5WaAuSmSvdavXF1fqBzTgWer9AenlTksyl4CHrEjgtQimARJShSnUxhmRJhiyh+jmNa46gJoLJSTktnOhRNKBMmtIeLQW/RhYVJrofKG3s3nnMiVW2fmhk923F65uWDtirrvaRouahSOMIcViU+akPkW4gAKcag8gzPFyZ6dzBmFU4VBvYYsDkLhiSeRqJioEQPwpW+lWakFNe1PY+AMMDZ0sofbKzvBNbg/GzVztYSGTWy7BNsROyJICwSTIEmJiC6KR4ZyEKl8C4QEUFgbGZ6yyiWZAW+EJYLkVgNxuLs7sOlnrVa5GCdYceXWkbmhk91sd67D7nu/L2sppgUocaowEOSwKAuTxilnWQpQsYx1i4nHGIz/EJcJMTppi5RZqjCwwGFRpnPhhBJBUnaJAg600WuGZi1a7yfYM0Fu2GQfbK9cfUUn1dt3TltQDUsVOMLpWGIrYpTyIBMV4gAKcfAkw6nKZCzIbGfCOcJDFgcZVDQRyHgePPGh7T7c3a2t1Re2P3fuy3hi68XbkMm+uvd5T9KD4DoPvn9O7MKVXTQJeMSOCLLpCSZBkhIRLcMjweJEzFWMwfgIcYGQAAotyXDGXalFrm+CSZBcv4AbaWfOcQ1Mjrkhk91YCW5oNitLwplZGNMUDTcOPUeYwxrLZ7VPaRYvCOsGoBCP1z0mHmMUr3JqC5RvqjAwMWRxEApP9MdV5DLjJkAM3shrvRX7c62L7/vruMD6cTZcsq99+MxLmk3zpR3oSum4joGsjYriOdpO7JJACZLrZtI412lKZlg3QQUFUOghE54snIykPA+emMBoFZ7XneX+AfuA9yae6nryNlSy4/bKsMHDR8Pu+0SiymllDotynYBH7IggtQgmQZISxekUhhkRppjyhzSmNa66AAqFZPjYUpyS6ebCCSWCjJzDvQVfzgWu/ualK/YdivgzQmyoZMftlbndd17DkA2QCecIc1ikeWnvghLOWCjkG5QL6Wesa9niVN2pwsDTkMVBKLyUaoETmNuu2W3vr2u77vtCKTZLNrJhkr199Zm7my3rgqj7zgYqscWHgkVx1l+KcuQyIkglgkmQpEREF8UjQ3Ii5irGYGyEuEBIAIWWZDjlLlk4GaEM0AWuEsEkyLD7vuoccX/mXkYbmZ3Shkh2HJ4Iz+cfdnu4wQPRAhOLM8cHh0W5z4UTSgRJ2S1cAMMy2wzOFFPqx7QK1zw0IDM7EZwwOiT1hql5tveHrTc98EQ5J1a+lQ2R7P6q88lGo9Ls20Qj8GIlgbNd9DJjvArEeeVYAbsyQ0IcQCGewn781NJzivqm9KnCoA5DFgeh8PQVJiSDABaerGjOof7djV0P3EQgM0fOfbKH2ysvWr/Wxm2b4AXJ4Ehs1sle1AK3Yb0S8IgdEaPzwL8EkyBJiYiW4ZFgcSLmKsZgfIS4QEgAhZZkOOMuqZjLDFdpwLRgGXK763Z8R5v5JaXnOtmXP3HWKTDx4D24NNDogB/ayR6Ufaow8MthURWaNE45YwpC3wAKcbDF4EwxhjPeh8WYFl8sK5cySxUGljgsykUuPNAM+KbuOcGe+mvuf4yyN4OFuU52sx98tlYx6q5Lt9Qg4WkeFXsBFMplwmXClOfEgtiKGKWMykSFOIBCnPKUvSCzXSrOMTZkcZBc51JbsLTewf7+5u/eh8tJz/wxt8mO2yu3FqvPobvvbLxLaVbWqLwsc5uAR+yIIF0RTIIkJaZCM76ZovzHIlSIaY2rLoBCIRk+tpSdktkmcOy+u7bneV3vv2Z3tD4ac5nsuL2y4QV/Snbf2fBJu/NEw7G6YTkTzhHmsCg/MpwSzliQ2RbiAApxqAuDM8WMlS1ZnKoMVRg4GrI4CIUn1mqoiN13txO8Z2H3vm8lys4YMHfJHq7P3fNugv3ZKi7sJio6ptudF9UkPRadUUSQugSTIEmJiC6Ey5QjL3xCph7iAiEBFDrMhCcLJyP80xr5rjUqWv+I/d16r/1egeTMQXOX7J1tf/fOsPsO2yuHb99TtVgqoYKNw/HBYVFOEvCIHRGkFsEkSFKiFFpmm8GZYuzuH6tTqBDTGosJoLFQTkpmW4BXYI832NhSg8TZpe9+GFYvnZ9jrpIdV/+omNofi7rvbOhnvjvPVrjMsuCiDd0IcQCFOFhgcKZY5pnEbcmcUThVGNgasjgIhVOOQdhchBltq85fzMtmjmT95ybZcXvloBsMuu/M23f2oiNPcEwnNmvsoh3rDCmBakw2KyPBdsSOCNIwwSRIUiKii+KRoRxEKt8CIQEU1kaGU1VOFk5GKANaDUbJ2SvODxst/+00Mh+luUn2ds+4qrWt+sw2dt95h6DFpHd3nr0sPMo3VRhY4bAo87lwQokgKbuFC2BYZpvBmWJK/ZhW4ZqHBmRms+A4YAsWpQgC/fX6K/d1y6ngdK3MRbJ3Pn7mjpplXhmuEJszPtN9WSe7itKdRDlWwJfMkBAHUIinsJ/udPlSRX1T+lRh4G/I4iBjHECc0dY72Lup/jtfuYtf0dnnznyy4/5Zgav9ZQUWonBly74nthjZEAIhAURayEXLbCfgETsiSO8EkyBJiYiW4ZFgcSLmKsZgfIS4QEgAhZZkOOMua7FWNzVn1T7Q9e0/yKo7S/Izn+xrj7vvg3XfT2p3h5kua1gBXrg7L7AdNiqFU4VBm3NY1MVQFKeMZSwIfQMoxMEXgzPFGJ6xdsXEqcpQhYHdIYuDDL74wBt4d82/bPvuh5eLVWR9tWc62XF75Ua98uYuNcmlWMA2XneeuEQJkhulQjgoy/S5TlMyQ9sCBwIo9JAJ5wgPWSxSW7S0/nL/S83XP/illGcys2Izm+y4vbJvezeZEDqf7b6zLcKGV4aH8qmEWMvFyzK3CXjEjgiyKgSTIEmJqdCMb6Yo/7EIFWJa46oLoFBIho8tpaKsKqwn13WPeGv65akUZlxoZpMdt1cOu+89NtOHES3QsNLuvMx2JpwjzGFR14kMp4QzFmS2hTiAQhzqwuBMMYZnrH0xcaoyVGFgd8gaIQY8q8/6ghRZAjKTyb72sTN3LjQrrwu771nOhpQdtRjJi9ECIQEUmimKx+oiZ0QuI4LUIZgESUpEdFE8MjQBIqyboIICKKxNJjxBGNj49t1ZsWd+QYosLTBzyY7dd93TbtHghu5RG7RxTiuhrSJJAS69u0dGyiA4FeGwKE8JeMSOCFKLYBIkKVGcBsMy2wzOFFPqx7TGVRdAY6GcFNi2KvrcLEiR5SxnLtkXjzSuhe77MWuwm0u48MwEG3bdX9ZN8NykF4HMtxAHUIiDdwZnitLqFRKQOaNwqgB7DcCQWFhmKgj8K+dhQYoscZqpZA/3Z6uZu7D7Hq0wJTsbuq3i0jI81BAICSCZarwyGTkJviN2RJB2CSZBkhIRLcMjwQkQMt8hLhASQGFtZTjnlHCCC64n11u299dfdf/VHJG5Zs1Usmt9r4rR9KnuO7SarOEK4BPvzlN1owqDC4fDoq6oojhlLGNB6BtAIQ6+GJwpxvBY7UKFmFZMLBeDMjsoVPHte99z52lBiiznPlPJvnDF/lvaPfehFkw4mOax7t35HCdLXasxfQIlyJgYMgrhoFxIn1uj9Myivin9IOy+e7b23nlakCJ9sGBofxbhacialvlH6MeAUUvjo4SLimrYsWWaEggJINpGjpLMdgIesSOC9E0wCZKUiGgZHgkWJ2KuYgzGR4gLhARQaEmGD93Vm+GCFI/M24IUTLSExZlL9sal+/6x4/p3NeAbJ91OUKIZ8RMrgBfuzmfyzRHmsKgTLIpTxjIWhL4BFOLgi8GZYsbKlCwOldFhNhs+OhoV/XXztiBFlmjMXLKHlTe1t7u2r1lZzqQE2el250uoMJgQJw6BEiTXcyEclGX6XKdDpkw3xAVCAij0IMIBC4fEdty5XJBCFFYWm8lkb136tYdtx/8ivhml2wlKNIM9n+K49OqIu8zH4ZwIh0XZTsAjdkSQWgSTIEmJqdCMb6aYst1iWuOqC6BQKAGv44IUa/O7IMU4AHJqJpMdq+029bdDwrsW9eyOCLRaQsMhGh4yfCTH+SvtzstsZ8I5whwWVU0ZTglnLMhsC3EAhTjUhcGZYsbKFhfH7vu8L0iRJQozm+xLv/+179l971M4l7j0iyKVQYGQAAqDXxTP0oJD2chlRJBGCCZBkhIRLcMjwQkQMt8hLhASQGFtSRzo8Jv6kf5cL0iRpRVmNtnxJIxqdU/X9joTubuTDc9ETHp3Z+SLFTkV4bAoH7lwmRLlIbkgNAOgEAezDM4UY3isIqFCTCsmJmPUa7AgRc+Z+wUpZOdJ4jOd7Lj9re/7H8Vf4PhRvMHjNsec6b6sK+dcUluRCRbCQbmQ/rgNclEpfIfdd2tjLEiRJUYznex4Inbd/0Cn4x6pwXY7sSNFw8Z0SIZMP5QVCAkgmSpZDS6d03akFhGkdYJJkKRERMvwSLA4EXMVYzA+QlwgJIDwhwhvHv1Ve0MsSMFERljkZJBQfuogLgUUuP57KtxRddByoobF2hbAJ96dp+pGFQZx5rCoBiiKU8YyFoS+ARTi4IvBmWIM59cupsUXI7hWzdD6K/Zhx9QuJdibgpz5ZMdWaD2lcm1nzTnAvbvjVZO9zVM37sbrzhPBIkhuQArhoCzT5zpNyZTZTsBNfOHra29Z3PXgT1N62jBivIfhmTs5XKe7ffWZ74K7+yc0mJnEPfAzSpGj4HB8HedGFjkEP7s+c264RXXU68BwcFxH7IggK0cwCZKUmArN+GaKgx8LzrlFdQsVYloRHP7YjPRBrL4EC1K0nbsbr3nglrHQ5qHmItmxOZqHLryxHdz+WkiqUwJ2RxgUoGbKISPjIdm1S4cFDcQHXnQFDoP4tfCjVB4bJHA9CCy9YjQjKcH1PjaQk5LZFuIABhA3UegYfaYoT/iUp4Xdd3vV6fi6NjdbLKc8tdRic5Ps+p49PmwBdfZKu7qY+uzKFHTLNCazJcoOTatYweebNfOCTi9hd5yh+ShxIoL0SzAJkpSI6EK4TDnyko8IzQt8DCHsvru6f2XjVff/KJ+j+deam2THUA8nKRya/7AXO4PuJ3YcF7OQcL1H7IggNQkmQZISpdAy2wzOFOV391AhphVWHRekaOBuLmvO/saujbcgRZb2ETwpZjGjZKcVgdW9z3uS7wZP8RzxXb30+mAuiQ4hDqAQB8MMzhRFnoVYFT7ZwkhM21h1f08ouAlAlexz1sjGmvfUmqUvwaTA+JGQIRE7IkhVgkmQpEREF8UjQzmIVL7jQuZCBaav6u+vXfbV7+TwuqFUVLLPWXMGgXGqWccFERMqnsQfiXNxLnOkUdJf8CFzw+BMMaX+QAvfC9abJgyecR6p/+AF7y7pJObajEr2OWs+3Q1Oy1PlWOIkGZEJFsJBuZB+UqXjfJwcjUuRhwtSwMvduMTm46hkn7M212v6qdIqJyRUxI4I0hLBJEhSIqJleCRYnIi5ijEYH4hDt8faUsVn9Q2/IAVz9sKiSnZheGYP9PveyeGYgjQXvaj6XH0uU2SFjwnNACjEwSSDM8UYzlai3qho9qH+o42W/3YW28xllexz1Pq4V71ZMY/3k0YRpjiXWOIk6cgEC+GgLNNPqpeEbw6vaL9qvh5HXkrENxWskn2OmnvlkP8UePg8xnWGj6CyhEnAI3ZEkEEgmARJSkyFZnwzRf6PBQhZC/hN3b6pseu+f5xKPefIiUr2OWos0wlObMLsP5d83RTLAuaEZDgjnqkosy3EARTiUBMGZ4oxvA6j5Oxl54mub/9BpvPYJMIq2eeooY2KeYoWW5Mv3wlEiRMRpB2CSZCkREQXxSNDxYiw+w7zF2BU8xtwWnQxaxtTWyX7HLUrzOt/Ore6ORMuUosI0jrBJEhSojgNhmW2GZwpDvSBid33fsf5Uuu1D/yv4vXamBZUss9Xuw7exPMyJJYFUzwxmW8hDqAQh/NgcKaoWTAktr/mbMoFKbK0skr2LNFaR9lgzx4DPrmdlDifX1Y3NkOG8hE7IkhDBJMgSYmILopHhrITJrzH2KwLUmSJlkr2LNFaR9m1E+86Wjf1/wBr6Q9rwckuDouqclGcMlZmASqWsW4ojkOG6zD2vXfEvn2zLkiRpRVUsmeJ1jrK4gSYKi5YQS3SwckQDktWbbEKgRIk12YhHJQz6uMWy3bP62g14w3c+igmFQGV7FQ4ZrcQToCBtc4LT2xNSKiIHRFkLAgmQZISES3DI8FiBC7vgd13r+O9Feap/6iYtc2hrZJ9Tto5nAAz+uxGJRRVGJwNh0WdZlGcMpaxIPQNoBAHXygC/3CL5e7B/n3NN+z7eMYabFpxlexz0vThBBiyCy9LihznJTZJoATJdVMIB2WJvgXrK9meb5tesJvrXzG5EVDJzg3L7DHDCTCJY+I52cFhUWeVgEfsiCC1CCZBkhIRLcMjwewEflP3V913qQUpssVOJXu2eK2L9E/2nt7SA+14L3oTP6wGlVBUYSDAYVEnIMMp4ZILQt8AcnBkNXA3l7b7SP3Azg+WXKMNb04l+xw0caPTOFazzGO4L+c4SVH0lCKTEUFaJJgESUpEdMk4dt+dvud7bec1uNpw5EcRqSKgkj1VmNZXKJwAA+ueu+QzO7dKnOzisCjVXLhMifKQs8D4gKLVsnAZ+g+1Lv3awzmNbmq1wsl+2z33nIj/NnUUJ3zy4QQY3saWI79UXlCFgQSHNVIN/3JwDotSiQoywUI4KA/+0xqwnpy9bD9abXhXRb4VkSkChZO96htPNQL9bZm8KuFMEUicAJPJSnbhKE8jgrRBMAmSlIhoGR4J8onR7le+HagFKfghSsUtlOx7YLy2HTgHLcu6RN3dU8U7r9DJGvtyjrVEJRRVGEhyWJSJXDihRJCU3TQFkS58VA+HxHacmxqX7lMLUqSJZ4JM0WT3DdP0tywuVtXdPSHCBdnRBBh8XhclBfqhcKqQuxblWGHrxqlOgqMGjBq011y1IAUnZFlZhZJ95Gx1dRWmGaq7+ygeZf7tHHX3k3ECjOulXIpK5DwhoSKVBDxiR0SkAQTBJEhSIqJleCQ4IMKLUy1IwUQlf7GUZHddV1N39/yNINLUdecEnAAzynWRbIhRCUUVBqocFmVThlPCJRdI30DXYPBMd9X5vFqQopw4l5LsuDe5uruX0yCsFV83/6OJE2CYRGDlqDIpS955KaFshchkRJD6BJMgSYmITolXYT25ft897Oq1yyNdRRSKQCnJjjXAu/vCwoJ6di/UHHHlvDvAxC0RnJQJR2iEZKQWEaQEwSRIUiILbcKnRrftX7Zl9z/8PIuekk2OQGnJjnf3leVl9eyeHOtcSOIOMLKEonCqMKgHh0VVUIZTwhkLItuANcLloJ3bFy7b9/mMlpW4IAKlJTv68H1f3d0Fwc4DCSfAiJImj7MUOpHLiCCVCCZBkhIRnYBXq7pm22pBiihOJRKlJjvWS93dy2udxAkwaV1QCUUVBhY4LMp0LlymRHmIFXCHWrUgRSwspTBKT3bP89TdvZSmge4sToAxjGOEY+JluUXhVGFQSw5LVv3UKjJBEgcaZ7R1l221IIWsAXLipSe7enbP2RIctdEEGOpNPEduoiwyIQlHETsiCJD8AsDFCdkhXqnpWrfvOWpBCiI2JZOlJzvWTz27l9NK0QSYlAmT6JXSpwoDFQ6LslUUp4zxC1atoul9/51qQQp+fMrgTiTZsWLttTUNFgW85K/vvPOpZVR0M9qgJsAUTTiZfo4Ai00SKEHy3DRg4cjuEfsbH1ALUvDCUxpvYsmOz+4whLYK6w0slVbbzWfoZGpTCEnSpA8PxxCHRdlLwCN2RJBaBJMgSQkDrkDHC/wg8F8PE6vUghRkcEqmJ5bsWE8XEl4d+SJATYBJayIhoSJ1CqcKAxEOK9JFQoZTwukKOCTWXu5/QC1IkS5eRaQmmuxFKrbZdWMTYEYBkSVcJlwmPHIq/htZiQhSnmASJEo0cIvltvNoq+6/i9RQ9GQioJJ9MnEtbDXzBJjCHocGmISMmU3AI3ZEkJoEc0hi9x2PcEGK3Q87g5L6/yQjoJJ9ktEtYDuaAMN7iiVyh+siE84R5rAoPzKcEuYUQB+7750V+1q1IAUnPhNiqWSfUGCLmpVOgJElnAwvWkGOfuQyIkihMbMBe7T1Vuwfri51/zspoejJRkAl+2Tjm9+65z+DehOf3xJfc5x7gFOFgTyHRRlKwCN2RFBaWriDFfzP77tvevKuR9o0qkqTjIBK9klGt4DtwNROGExiT8gatC2AQteZcI4wh1XglGCPtkCrwhbL3a77+dblD/1NEVtKN3sEVLJnj9nENUYTYKKlqERZLUtIGV7kbBJsR+yIGDip1aH73nYOqQUpigQ9v65K9vyxm5jmttXm8TgBBpeiwh1LJ3pQ9qnCwC2HRdUnJW6CnGnBijuO9ka1IAUVwakVVLJPLdTpHTm+f3wTdoDxhhs5DhJekFUCKPSaCZcJpzsP0grWv7poab2uqxakSBe+iUipZJ9IWIsZDSfAwEus+F2dTCHGhwBiJLMXZbYT8BG7DktMweCZNb+nvy67c6VRVgRUspcVyRLtUBNghnbjiZ/R4SjzktQonCoMNDgsypQAN2CknNv3/rD1pgeeoHRUYaoRUMk+1XCndnYyvZwsqSfIKgEUWiiKk9VIQeMPVKMJb9/XnPtal++/PoWKEplgBFSyTzC4eUxHE2CGz+ukjfHdXZa1pFZemuODw6KsM3jV0rV+1+05mv9aSk4V1iUCKtnXJezJTnECDDysH9tPWJ5mnPAJNpiEi0llwjnCHBblg8AtuKtDfa9a+v2vfY+SUYV1iYBK9nUJe7JTnADTrFYafkKyjzWJrBozB5QACgWK4qw/pow/SE3svq8436irBSmY6KxfUSX7+sWe69m3tVM12N+M04uP5KV390iyDILzy8BhkZ6w++7YnoMLUuhqQQoyNOtKq2Rf1/BznJvBaYMB5ByMYA0SXpB1Aig0kwmXCRMVA9JqVDS74/y5WpCCjst6l1Syr3cLMP51Tz8lehOfKscEQgIodCvDmbpRRY4usprwma235nxbLUhBRWsmCirZZ6IZxpUIJ8CI+vBjUc6gGwIsg6QSmioMrDMsCwYCeTowfe0yXS1IUUYLlGpDJXup4SxmLJoA4xJZRJA86zPTnYd6VmGTh/6aqxak4DXUDPAmnuyupi3PwHnORRVGE2Ac9s4uSfjByaUSKj8OQ7dNWA4aZrSpBSnKj3BpFmGl58kcOHcZj5pRefXtd97z75PxUo5V3+ndftFFFx0ux1p+K7Aa78nNmqW1u5xVeTGcsBA/78BQwya6yYdAN1TKhMeFQ9/YhW97u5+8O/+C4JlDAgAADX1JREFUFF+//nrrp//xpFcmn0hxxNa8r7xs586Zvh6LnyXfwsSTvdVqvd8YrS7Ir8O6cWFde+3QoUPof/u6VYJwHLjw2a0pylpCmEvGEzESE0ChjAyPDNEE/qg3m7Ce3LK9d+Hy/XfSaLbSgaed9GdPOe4pV6yurmRTTCldq9W01dXVH912zz2/dtH55z+WUm3DiE0s2UcRardnd+Uh+CHCat43C3d1rIhuGSfi38RDkJDju7tAKNFwCoAyOy7gctC9NfeA6xpvSWElUeT2u+49u9msX/GTn/x/4fZhiYIFgJWVFW3Lli3Hg4m/34wJP/Fn9gJtM3HVSiX8rfvmxB2ldKD72tOjz24pdUix4ZMTyaJpzFHRkQkfCBswfRUeOt6ydMW+sIskMp+EYfddN4KbsAeIOwlN6gg3HYWEr1arxzerdUx48Y/rpCqyTnYLJ7vveQZ2h0fP6Ot0HrncYnL4nv9PuZRLVsIJMBDD4zXyTTzPhywhQx2BkACSqZLVwdg1YT25zqp768Jl+z5PYllp7L5v37b9tDXcH1D48iGr5bj8Zk74wsnumebPer3ecrPZnKuEx7tIt9vRNCP4VvySmD4nmgDj4lpUEv8CXHp3l5iWwkPfVVhJx+65a1pgXCrVEQhg973VbF5x5MiRiSf6qBqbNeELP7O/9PzzD/ztXXedb9v2XUtLW7f1+71RTGf6L3TlNHiGW64EwXdmoaI4AaYBE2DaDiR7wQMTXsfBLYmv75Oh0LVAdYRbVRNeyvX/sHX5vtwLUtx2223boJ5/1Wg0JvacHtY34X9wzWqLi4vH+8v+12+7887zLtq58/8kiG4IduFkxyi85IILvg4Jf4Gh69dAss/Em+0UrVOF995f2blz50y8QQwnwLSgRvaw5ikSLimXx+cuMCKAxvpxCtVaOKPtiP33rf9WbEEKs9b8vVqt6h06+PPvxz1Nh9PvdbVavVE1jcrVt95zz6vw5jUdz9P3UkqyY7Ux4WHL3R3TP4X8Hmdqi2DeBBhZQgrwwd09f2zCRwnOV0AcEtu3vZ5T03YXsB6qGr5zw1fu/cpHi9opqv8uMHDXjh2N4/7t30Y/tUVNzqR+acmOZzdTyTOT4U6uFDUBJlksByL6RQBznISOnHBUq3BXbx/svWPpiocKL0gxK72qPYMTnokeXhT7CRCFX9BNoE6b0mQ4AYb3Jh4TTnQI8PHLOoGQyDaBoQVckKJ9pP/QwhUP/Q8CUuScRCAx2fGNZaBV5uNt25wEO6ma0QQYdkz8SKFAro4TfmSM+SuzPcSx++54vqPVTbWeHBPCWSlCU/VEny65yT76Zq4bmlrnewotiRNgoJGOiU2ASetblrChHYGQABqpYvcdF6RY2L1vJj5Vpg3NZpHDgUmw38Cr8QtD0sFNdhTudDra1q1bL7n97i/fkKSs+OVEACfA4DbGvuirW4qETKqN9O6epAj8AJ7pwxltXVctSCGI03pCmOg/P/nUW5eWll6MeZt0GDgYJulYhoEOR23f/jqV8EkRKocfToAxIKtkCV3A3SDhBQ4SIHyD68Gmc4HrvU4tSFGgASakSib6kcOHuQOTsGsPqxrWjXanc+PWbdu4QtidPwwGVMJPqKWGZiHMp6XykJCQka4MDwUFQhyoBnu0dTvuXzTfuH9f5EcRMxEBNtF5lcKRog28oevmtcaFL/z118NQxVu2QcLzDpXwvKiUyzMrxsmD5WQh2zgJR3krgGftztdxQYqe+8P2Uf13UHVQhXWPwCjRt23d+mK8o/MOTPQtS0va4SNH3vfiF77gI9FX1jvuuffT27dtuwTv5KMXdKQB7ArA0EJtZXn5M9AN+DaJbXbaNE3Ldf17L7zgBQ9kjQVOgOlsvf3RpmmcNBgqC00StUqCtYL4YK6JwAhA8PJdq+Gntrb9ooU3FZunDouX/OeKVTkVZrQ5CWek2NkjcAE8o//a8jJ/ISgy0S88/wV/jOajQTUvPv8FvwcJr2HCDxd0oNzjDwBM/NdaCwu/M5waSuGbtaDDr2ez0dSeePzHP4UYZE72cAKMCzvARJ/d8O4OmSbIxaTRbVEb4N1fpB8KCoQAqm0pZ0EKGEb9KwsLC1/AhSMmOX01OvdNQuBb96TJQ7xEx7BEyY6FKOG3b+fe4THhZ3kxCjyHaR/Y4+nAAh2+5j+cxzdOgLEqZqNPDaiZbMJjd35wd+fXuAabPJSxIAWMqITXjuan0MvBgwe574X4NVDcNBHAa489khId5WKf3jDhDx0+HD7D84yxxjd7GXs5/X5/2TWMXOua4QSYCnx2m/y60HRLDZ7fIeuZw4SqmDWz8IIUaPass8/970cdtf2X8AahriUm0BMoihId3cWSHZkq4TEK6Q4MsG7oP8k9WwonwHAPvLtzgTGzKB5aGhvBnhs+p3c6XuEFKW69447TKpZ1FT76qWPyEZAlOtaAm+wIqITHKMgPvLPruvGYXJIvEU6A4UPALSHhE23HOxN16GF0Ou5y0QUp0GW1Ur2x2WhURSO6BFVTUIYIpEl0NEc9s7P2R8/wRx911CXdbpeFVRkiAAt24HuM3POx4WZ6inQpqiKRxht3/NGOsTgQwu67tma/tXX5V3MvSIGG77j7y2879tjjzl1ePqLByznGlyqWHQF8+Xnw8OH3jd66J9kXJjsqhQl/95dXatXqWX3b7icZ2qx813Fqga/dnef8D11/xpLW1k6Az3YCdby7Q7aKElaW0AJ88OwOC1IswoIUq07hBSnC1WcM47yDP//ZfnW9CJq1JAjysgbLwt0Gif6nMpOiS0imq/CCEehf89ynB33/n9FM+DJe2BqShBfqggMBjm/fPUPvaVXzGfXX3J/7kaRgOJT6hCOQ+Mw+Yb/KPEQAJ8DUoOtMfXXLGxm8e4sOAV6pVzS3475DJboogPOPqWRfxzYMJ8BUiFuuICFLeVnHsd+CzRjbq7ZakGIdr4NpuVbJPq1Ic/zA83LCZzeO8ARYFRgTa/c8Vy1IMYHgzqBJlezr2CjhBBi2D8+5+46rCKAQB8kMOH5Tdz3tvWpBinGENzKlkn2dWje4/gwLBrEc70Zj4omKCBO2nIRv4R5ttvftZt15L+FZkRs4AirZ16lxO3b9F3wneIrHS/YJ1wnXyUC/akGKCQd6xsyrZF+nBsEJMPW6WXO9hNt4AntQ3QJ3d1Bt4IIUPbUgxTo1/bq5Vcm+TqEPJ8DIlqIqmvCcc2s1YdumFftfF46rvJ0DK9YGjoBK9vVqXJwAg9EXJnTByjG28bcFD1ij/jL9lfvU+OdBODbN/1Wyr1NThxNgRKNkR/ViEnbEHvwFUIiD1AiHv9h9X1tzbiy68gxdB1WalwioZF+nlgonwIxezo0SMqkuQlwIRhbrdZjRtmIfcBb8P4qYithUEVDJvg7NHU6A0WECzCjZi9ZBku/YfTctmHffrFy2fffD/EXLitZB6c98BFSyr0MTtVzrWJhuuNUj38RLEjbqjnPrC8oJ+rggRQOGxHZWnC82X//gl7jqirkpIqCSfR2aOZoAwz6zJyRsVEUZHgmOiTrc0WFBiiOaZf23MVdRmzECKtnXodUHO8CU7Zh/d6/A2u+BG7y59aYHCi1IUXZtlb3pR0Al+/RjjmtLJk+Akd29hfg44bH7Hn5T77p3LVyx/5Z1OE3lcsYioJJ9HRpksAOMwLEwoQV6BITd967tdcyW9QaCrchNHAGV7FNu/GgCDCxFBTfffIdQb3B3x+677/jvVAtS5AvxRtRSyT7lVo0mwJBv4nl1ECY0KCTgyG61TFgE01ELUvDiuol5Ktmn3PjhBJiqURutMSm8uycktKjKFi5I4fhqQQpRkDYpppJ9yg0fToCpGFQXXpjwovpxfgxq8E1dLUghCtrmxVSyT7vtE3eASagIJ6EpySGOf1rwnN5edv538/CL3k3JqIKKAERAum68ilK5EQgnwHCijnd3zj59qZ2b0H13YYkro6a9Qf+DPexwndR2lODGjYC6s0+5bSGpT9GyjolPcXfHIbE91/uL5hv375vyKSl3cxIBlexTbKjRBJi+w7/xCp/dExIeN4vB9eQ6a45akGKKbTmPrlSyT7HVal7lZFinfWsNZ6ANF5Jg3QsTnhWGsjXkqQUpOMFRLCoCKtmpcEy24PaMH3R6/lUdz//XVs3QFmCJKAv2Ukx9MHd32GNOw7fvaz1XLUiROoibVzDh/rJ5AzKNMw/27DHaR93+Qj3QL4ZJKr8Jb9G34h5Q7f54VF3SnT+s37DVarDFsu35B/oN7zQ1T30aLTffPlSyr3P7re593pOMI+5/gu77ayue9pwafD5zbV/rO8xtnKwnthr8w09tHcf9zdblD/0NCStaRYAXAZXsvKisE6997Vln+H3/dwxd/42mZZ6E1ej3PW002m5ULXyuX9gCC1K03S+2rtj/WyO++qsiIIqASnZRdNYJ+8ne01tbegsvCuzgdzXHvaDZtBoa3O3b8A/HxOMWy30vOBIcXTltcdeDP12naiq3cxYBlewz3mC9m885Meh7r/Q63m+3qsYzNdz1FRaVa7fd31Pz1Ge88WaseirZZ6xBRNXBbr7maa+Bu/tC6/KvXSKSVZiKABuB/x9xqAxloU9CNAAAAABJRU5ErkJggg==;" parent="1" vertex="1">
                    <mxGeometry x="510" y="295" width="75.3" height="90" as="geometry"/>
                </mxCell>
                <mxCell id="14" value="" style="endArrow=classic;html=1;strokeColor=#000000;exitX=1;exitY=0.5;exitDx=0;exitDy=0;" parent="1" source="6" target="8" edge="1">
                    <mxGeometry width="50" height="50" relative="1" as="geometry">
                        <mxPoint x="280" y="340" as="sourcePoint"/>
                        <mxPoint x="320" y="300" as="targetPoint"/>
                    </mxGeometry>
                </mxCell>
                <mxCell id="15" value="" style="endArrow=classic;html=1;strokeColor=#000000;entryX=0;entryY=0.5;entryDx=0;entryDy=0;" parent="1" source="8" target="13" edge="1">
                    <mxGeometry width="50" height="50" relative="1" as="geometry">
                        <mxPoint x="445" y="372.5" as="sourcePoint"/>
                        <mxPoint x="525" y="372.5" as="targetPoint"/>
                    </mxGeometry>
                </mxCell>
                <mxCell id="16" value="" style="endArrow=classic;html=1;strokeColor=#000000;entryX=1;entryY=0.5;entryDx=0;entryDy=0;" parent="1" source="10" target="13" edge="1">
                    <mxGeometry width="50" height="50" relative="1" as="geometry">
                        <mxPoint x="650" y="410" as="sourcePoint"/>
                        <mxPoint x="735" y="410" as="targetPoint"/>
                    </mxGeometry>
                </mxCell>
                <mxCell id="17" value="Cloudflare Pages" style="text;html=1;align=center;verticalAlign=middle;resizable=0;points=[];autosize=1;fontSize=16;fontColor=#000000;" parent="1" vertex="1">
                    <mxGeometry x="476.84000000000003" y="390" width="150" height="30" as="geometry"/>
                </mxCell>
            </root>
        </mxGraphModel>
    </diagram>
</mxfile>